<?xml version="1.0" standalone="no"?>
<!DOCTYPE svg PUBLIC "-//W3C//DTD SVG 20010904//EN"
 "http://www.w3.org/TR/2001/REC-SVG-20010904/DTD/svg10.dtd">
<svg version="1.0" xmlns="http://www.w3.org/2000/svg"
 width="470.000000pt" height="458.000000pt" viewBox="0 0 470.000000 458.000000"
 preserveAspectRatio="xMidYMid meet">

<g transform="translate(0.000000,458.000000) scale(0.100000,-0.100000)"
fill="#000000" stroke="none">
<path d="M2235 4475 c-362 -38 -697 -149 -995 -330 -202 -122 -326 -227 -540
-454 -8 -9 -38 -46 -65 -81 -199 -256 -344 -566 -409 -870 -29 -140 -40 -254
-40 -430 -1 -220 17 -337 78 -533 19 -59 106 -241 117 -245 5 -2 9 -9 9 -16 0
-17 27 -53 90 -116 64 -66 105 -94 120 -85 6 4 9 1 8 -5 -2 -7 5 -17 15 -23
14 -10 20 -9 28 3 9 13 10 13 6 -1 -6 -18 73 -64 131 -75 28 -6 31 -4 26 11
-5 11 -9 13 -14 5 -5 -7 -14 -8 -33 -1 -26 10 -26 11 -12 51 8 24 10 40 4 40
-5 0 -9 6 -8 12 3 25 -1 39 -9 34 -5 -3 -9 1 -9 9 0 8 4 12 9 9 4 -3 8 0 8 5
0 6 -4 11 -9 11 -9 0 -26 48 -22 63 1 5 -3 6 -9 2 -5 -3 -10 0 -10 7 0 8 -13
40 -30 73 -16 33 -30 63 -30 68 0 4 -9 27 -20 50 -21 44 -22 49 -35 125 -4 26
-12 42 -21 42 -8 0 -14 9 -14 21 0 15 5 19 15 15 11 -4 15 2 15 25 0 22 5 32
20 36 23 6 27 23 6 23 -8 0 -16 -7 -20 -15 -3 -8 -11 -14 -18 -13 -7 2 -12 -5
-12 -15 1 -9 -2 -17 -7 -17 -5 0 -9 11 -9 25 0 14 5 25 11 25 14 0 39 25 39
39 0 6 -5 11 -11 11 -6 0 -8 9 -3 22 4 13 8 35 9 49 1 14 8 49 15 78 7 28 10
61 7 71 -3 11 -1 23 4 26 5 3 6 10 3 16 -7 10 -6 56 0 163 2 40 38 136 61 165
7 8 12 28 11 44 -1 21 7 38 30 60 38 38 54 67 54 99 0 18 8 28 30 37 17 7 30
16 30 19 0 4 24 18 53 31 48 22 50 25 27 31 -22 6 -23 7 -7 14 15 6 16 10 5
16 -9 6 -9 9 -1 9 6 0 10 9 8 20 -2 12 6 27 21 39 14 11 23 25 20 30 -4 5 -2
12 4 16 6 4 8 11 5 16 -4 5 -1 9 4 9 10 0 15 -14 12 -33 -1 -5 3 -5 9 -2 6 4
9 13 6 21 -3 8 1 14 9 14 9 0 12 6 8 16 -5 13 -7 13 -14 2 -17 -26 -9 11 9 46
15 28 21 32 36 24 16 -9 17 -7 11 12 -5 17 -4 21 6 15 11 -6 12 -5 2 6 -13 13
-19 38 -6 26 3 -4 12 -2 20 5 11 9 12 7 6 -8 -6 -16 -5 -17 9 -4 12 12 13 18
4 29 -8 11 -8 15 2 18 6 3 12 11 12 19 0 9 11 14 30 14 17 0 30 4 30 10 0 5
-8 6 -17 3 -13 -5 -12 -1 5 17 12 13 22 28 22 32 0 5 4 7 9 3 5 -3 13 0 17 6
4 7 3 9 -4 5 -6 -3 -13 -2 -17 4 -3 5 1 10 9 10 9 0 16 5 16 11 0 5 5 7 10 4
6 -3 10 1 10 9 0 9 5 16 11 16 5 0 7 5 4 10 -3 6 3 10 14 10 12 0 21 4 21 9 0
5 14 20 32 32 l31 23 -6 -23 c-5 -22 -5 -22 13 -6 10 9 16 24 13 34 -3 12 2
20 16 24 24 6 27 -3 9 -23 -7 -7 -1 -5 14 6 15 10 28 25 28 33 0 10 -3 11 -14
2 -8 -7 -17 -8 -20 -3 -3 6 1 15 9 22 8 7 15 9 15 4 0 -4 10 2 23 13 15 15 32
20 55 18 28 -2 32 0 32 22 0 13 4 22 9 18 6 -3 14 3 20 12 9 15 10 12 11 -17
0 -33 1 -33 18 -17 9 10 22 37 29 60 10 38 11 39 12 12 1 -16 8 -38 15 -48 12
-15 14 -16 20 -2 8 21 36 19 31 -2 -2 -13 4 -18 21 -19 24 -2 31 16 26 66 -2
23 7 60 16 60 11 0 32 -51 31 -74 0 -20 -1 -20 -8 -2 -5 13 -10 16 -14 9 -4
-7 -3 -14 3 -18 5 -3 10 -25 10 -48 0 -31 3 -38 10 -27 8 12 10 10 11 -10 1
-23 2 -22 16 10 9 19 18 29 20 22 3 -7 -2 -28 -11 -46 -9 -19 -16 -43 -16 -54
0 -12 -4 -24 -10 -27 -5 -3 -10 -18 -9 -33 0 -15 3 -20 6 -12 2 8 8 24 12 35
16 42 33 91 41 120 4 17 19 56 34 89 14 32 26 63 26 68 0 38 213 427 265 485
5 6 21 26 35 44 14 19 57 67 95 107 68 72 81 93 60 97 -5 1 -64 -3 -130 -10z
m-45 -185 c0 -5 -2 -10 -4 -10 -3 0 -8 5 -11 10 -3 6 -1 10 4 10 6 0 11 -4 11
-10z m-100 -146 c0 -8 -4 -12 -10 -9 -5 3 -10 10 -10 16 0 5 5 9 10 9 6 0 10
-7 10 -16z m-65 -94 c3 -5 1 -10 -4 -10 -6 0 -11 5 -11 10 0 6 2 10 4 10 3 0
8 -4 11 -10z m-108 -72 c-3 -8 -6 -5 -6 6 -1 11 2 17 5 13 3 -3 4 -12 1 -19z
m44 -54 c-11 -27 -20 -45 -20 -39 -1 14 31 96 36 92 2 -3 -5 -26 -16 -53z
m-54 -11 c-3 -10 -5 -4 -5 12 0 17 2 24 5 18 2 -7 2 -21 0 -30z m19 -43 c5 0
10 -6 12 -14 2 -9 -1 -16 -7 -16 -6 0 -8 7 -4 15 3 10 1 15 -7 13 -7 -2 -15 4
-17 12 -4 12 -3 12 5 2 5 -8 13 -13 18 -12z m-156 -31 c0 -11 -4 -17 -10 -14
-5 3 -10 13 -10 21 0 8 5 14 10 14 6 0 10 -9 10 -21z m140 0 c0 -6 -4 -7 -10
-4 -5 3 -10 11 -10 16 0 6 5 7 10 4 6 -3 10 -11 10 -16z m-125 -38 c3 -5 1
-12 -5 -16 -5 -3 -10 1 -10 9 0 18 6 21 15 7z m48 3 c9 -9 -4 -35 -14 -28 -5
3 -9 12 -9 20 0 14 12 19 23 8z m69 -16 c-7 -7 -12 -22 -12 -35 0 -13 -4 -23
-10 -23 -13 0 -13 12 0 44 5 14 15 26 22 26 9 0 9 -3 0 -12z m-42 -33 c0 -8
-4 -15 -10 -15 -5 0 -10 7 -10 15 0 8 5 15 10 15 6 0 10 -7 10 -15z m-50 -10
c0 -8 -4 -15 -10 -15 -5 0 -10 7 -10 15 0 8 5 15 10 15 6 0 10 -7 10 -15z m57
-37 c0 -13 -6 -26 -12 -30 -14 -10 -24 24 -11 39 17 19 25 15 23 -9z m-45 -40
c-3 -12 0 -18 8 -16 7 2 14 -4 15 -12 2 -11 -6 -16 -26 -16 -29 -2 -40 18 -19
31 6 3 10 18 10 33 0 19 3 23 9 13 5 -7 6 -22 3 -33z m-92 -28 c0 -5 -2 -10
-4 -10 -3 0 -8 5 -11 10 -3 6 -1 10 4 10 6 0 11 -4 11 -10z m-1053 -92 c-3 -8
-6 -5 -6 6 -1 11 2 17 5 13 3 -3 4 -12 1 -19z m-73 -27 c3 -5 -1 -11 -9 -14
-9 -4 -12 -1 -8 9 6 16 10 17 17 5z m-177 -373 c-3 -8 -6 -5 -6 6 -1 11 2 17
5 13 3 -3 4 -12 1 -19z m30 -30 c-3 -8 -6 -5 -6 6 -1 11 2 17 5 13 3 -3 4 -12
1 -19z m-200 -1225 c-3 -10 -5 -4 -5 12 0 17 2 24 5 18 2 -7 2 -21 0 -30z
m244 -480 c13 -16 12 -17 -3 -4 -10 7 -18 15 -18 17 0 8 8 3 21 -13z m39 -33
c0 -5 -2 -10 -4 -10 -3 0 -8 5 -11 10 -3 6 -1 10 4 10 6 0 11 -4 11 -10z m65
1 c3 -5 0 -13 -6 -17 -7 -4 -9 -3 -5 4 3 5 0 13 -6 15 -9 4 -10 6 -1 6 6 1 14
-3 18 -8z m-37 -26 c-3 -3 -9 2 -12 12 -6 14 -5 15 5 6 7 -7 10 -15 7 -18z
m120 -22 c-10 -2 -28 -2 -40 0 -13 2 -5 4 17 4 22 1 32 -1 23 -4z m62 -31 c0
-10 -6 -27 -14 -38 -13 -17 -15 -17 -21 -2 -4 9 -13 14 -20 12 -16 -6 -29 12
-15 21 5 3 10 1 10 -5 0 -6 4 -9 9 -5 6 3 14 -2 19 -11 8 -15 10 -15 15 0 4 9
2 16 -3 16 -6 0 -10 7 -10 15 0 8 7 15 15 15 8 0 15 -8 15 -18z"/>
<path d="M2881 4376 c10 -8 89 -13 89 -5 0 5 -21 9 -47 9 -25 0 -44 -2 -42 -4z"/>
<path d="M3017 4353 c-4 -6 4 -8 18 -6 13 3 34 -2 47 -11 12 -9 37 -16 55 -16
17 0 34 -4 38 -10 3 -5 13 -6 22 -3 10 4 -4 13 -43 25 -77 24 -130 32 -137 21z"/>
<path d="M3225 4300 c3 -5 13 -10 21 -10 8 0 17 -7 20 -15 4 -8 10 -12 15 -9
5 3 9 1 9 -5 0 -6 6 -8 14 -5 7 3 16 -2 20 -12 4 -12 10 -13 19 -6 8 7 18 6
31 -4 11 -8 28 -14 39 -14 14 0 17 -5 12 -22 -4 -16 -3 -19 3 -10 11 16 61 6
69 -14 3 -8 12 -14 20 -14 8 0 11 -5 7 -12 -4 -7 -3 -8 4 -4 6 4 20 -2 32 -14
21 -21 27 -35 10 -25 -5 3 -10 2 -10 -4 0 -20 22 -22 27 -3 5 20 6 20 49 -6
24 -14 39 -29 35 -32 -5 -3 -4 -16 1 -29 8 -22 10 -23 24 -9 14 14 19 13 44
-12 16 -16 43 -36 59 -46 17 -10 35 -30 40 -44 5 -14 10 -19 10 -13 1 9 7 8
20 -4 11 -9 17 -23 13 -31 -4 -11 -1 -14 11 -9 10 4 18 0 22 -12 3 -10 13 -18
22 -17 10 0 19 -8 21 -19 4 -17 2 -18 -12 -6 -14 11 -16 11 -16 -2 0 -19 24
-29 39 -14 8 8 23 -3 56 -39 24 -27 45 -54 45 -59 0 -6 9 -17 20 -25 11 -8 20
-24 19 -35 0 -20 0 -20 -9 0 -5 11 -9 16 -9 10 -1 -5 -6 -3 -11 5 -6 9 -10 10
-10 3 0 -6 -3 -19 -7 -29 -5 -13 -3 -16 10 -11 12 5 17 1 17 -13 0 -26 27 -15
33 13 l4 22 8 -22 c4 -13 11 -23 16 -23 5 0 9 -9 9 -19 0 -10 7 -21 15 -25 8
-3 15 -9 14 -13 -4 -23 3 -33 22 -33 17 0 20 -5 16 -27 -2 -16 -2 -22 0 -15 7
19 23 14 23 -7 0 -10 7 -22 16 -25 11 -4 13 -13 8 -28 -3 -13 -3 -20 1 -16 4
4 16 -2 27 -14 13 -15 15 -24 7 -29 -6 -3 -12 -27 -13 -52 -2 -26 1 -44 5 -41
4 2 9 -6 11 -18 4 -28 28 -36 28 -9 0 12 3 21 8 21 14 0 38 -36 34 -49 -3 -9
0 -11 8 -6 9 5 10 2 5 -15 -5 -15 -4 -20 4 -16 6 4 11 0 11 -9 0 -9 -4 -13
-10 -10 -6 4 -10 -5 -9 -22 1 -18 3 -21 6 -10 7 27 27 15 34 -22 4 -18 12 -38
18 -44 6 -6 11 -20 11 -32 0 -12 6 -30 14 -40 9 -12 12 -33 9 -55 -3 -27 -2
-31 6 -20 6 8 11 25 11 37 0 22 -52 179 -75 223 -7 14 -38 79 -70 144 -32 66
-66 127 -77 138 -10 10 -18 21 -18 26 0 6 -67 113 -92 147 -120 160 -257 295
-468 458 -87 68 -239 152 -385 213 -84 36 -100 40 -90 24z m1098 -1007 c-3
-24 -2 -25 6 -8 9 18 11 18 15 -2 1 -5 5 -14 9 -20 5 -9 3 -13 -7 -13 -9 0
-16 -8 -17 -17 -1 -10 -7 2 -15 26 -11 36 -11 47 -1 53 6 4 13 8 13 8 1 0 0
-12 -3 -27z"/>
<path d="M3200 4279 c0 -5 5 -7 10 -4 6 3 10 8 10 11 0 2 -4 4 -10 4 -5 0 -10
-5 -10 -11z"/>
<path d="M3390 4201 c0 -6 5 -13 10 -16 6 -3 10 1 10 9 0 9 -4 16 -10 16 -5 0
-10 -4 -10 -9z"/>
<path d="M2410 4130 c-13 -11 -27 -20 -32 -20 -17 0 -7 -27 22 -55 17 -16 30
-35 30 -42 0 -8 6 -16 14 -19 8 -3 17 -16 20 -30 4 -13 11 -24 16 -24 6 0 10
-6 10 -14 0 -8 8 -29 17 -48 9 -18 22 -45 30 -60 7 -14 13 -33 13 -41 0 -8 7
-20 15 -27 8 -7 15 -19 15 -27 0 -8 14 -35 30 -60 17 -24 30 -46 30 -48 0 -27
174 -221 262 -292 41 -33 154 -103 167 -103 6 0 11 -4 11 -10 0 -5 5 -10 10
-10 23 0 110 -46 110 -58 0 -8 -7 -11 -17 -8 -86 24 -133 41 -133 48 0 4 -7 8
-15 8 -16 0 -139 67 -171 92 -48 38 -165 161 -204 213 -44 60 -140 238 -140
261 0 6 -7 25 -15 40 -8 16 -15 36 -15 44 0 8 -9 26 -19 40 l-19 24 -36 -19
c-58 -32 -91 -67 -138 -152 -31 -56 -33 -62 -32 -168 0 -104 2 -113 33 -175
18 -36 36 -67 40 -70 4 -3 12 -13 17 -23 20 -36 119 -129 184 -172 111 -74
197 -102 382 -126 160 -21 166 -21 313 -4 83 10 175 24 205 31 30 8 69 14 87
14 26 0 33 4 33 19 0 18 -21 30 -78 46 -37 11 -164 145 -194 205 -57 115 -69
150 -108 310 -24 102 -60 221 -70 235 -4 6 -11 21 -15 34 -23 75 -115 185
-182 220 -117 59 -270 16 -313 -89 -7 -17 -16 -30 -20 -30 -7 0 -70 133 -70
149 0 19 -56 12 -80 -9z m160 -564 c0 -6 -8 5 -18 24 -10 19 -16 39 -14 44 5
9 32 -48 32 -68z m280 -120 c0 -6 -6 -2 -13 9 -15 20 -34 5 -21 -17 5 -10 4
-10 -5 -2 -10 9 -10 16 0 32 12 19 14 19 26 4 7 -9 13 -21 13 -26z m-152 -52
c12 -10 13 -13 3 -14 -18 0 -40 30 -40 55 0 17 2 17 10 -4 5 -13 17 -30 27
-37z m-30 -50 c-3 -14 -5 -12 -10 9 -3 19 -2 25 4 19 6 -6 8 -18 6 -28z m255
11 c-3 -9 -8 -14 -10 -11 -3 3 -2 9 2 15 9 16 15 13 8 -4z m-178 -5 c-3 -5
-12 -10 -18 -10 -7 0 -6 4 3 10 19 12 23 12 15 0z m-108 -42 c-3 -8 -6 -5 -6
6 -1 11 2 17 5 13 3 -3 4 -12 1 -19z m158 -16 c-3 -3 -11 0 -18 7 -9 10 -8 11
6 5 10 -3 15 -9 12 -12z m-11 -54 c-3 -5 -12 -4 -20 3 -19 16 -18 18 6 12 11
-3 17 -9 14 -15z"/>
<path d="M3605 4030 c3 -5 8 -10 11 -10 2 0 4 5 4 10 0 6 -5 10 -11 10 -5 0
-7 -4 -4 -10z"/>
<path d="M3752 3960 c0 -14 2 -19 5 -12 2 6 2 18 0 25 -3 6 -5 1 -5 -13z"/>
<path d="M3781 3944 c0 -11 3 -14 6 -6 3 7 2 16 -1 19 -3 4 -6 -2 -5 -13z"/>
<path d="M3845 3880 c3 -5 10 -10 16 -10 5 0 9 5 9 10 0 6 -7 10 -16 10 -8 0
-12 -4 -9 -10z"/>
<path d="M3912 3790 c0 -14 2 -19 5 -12 2 6 2 18 0 25 -3 6 -5 1 -5 -13z"/>
<path d="M1750 3710 c0 -5 5 -10 10 -10 6 0 10 5 10 10 0 6 -4 10 -10 10 -5 0
-10 -4 -10 -10z"/>
<path d="M4040 3701 c0 -6 5 -13 10 -16 6 -3 10 1 10 9 0 9 -4 16 -10 16 -5 0
-10 -4 -10 -9z"/>
<path d="M1748 3625 c-3 -14 -1 -25 5 -25 5 0 7 -14 5 -30 -3 -17 -1 -33 4
-36 5 -4 8 19 6 51 -3 61 -13 80 -20 40z"/>
<path d="M1460 3584 c0 -8 -4 -13 -8 -10 -5 3 -9 -1 -9 -9 0 -10 5 -11 18 -4
11 5 16 16 13 24 -8 19 -14 19 -14 -1z"/>
<path d="M1780 3520 c0 -5 5 -10 10 -10 6 0 10 5 10 10 0 6 -4 10 -10 10 -5 0
-10 -4 -10 -10z"/>
<path d="M1760 3484 c0 -14 4 -23 9 -20 5 3 7 15 4 26 -7 28 -13 25 -13 -6z"/>
<path d="M1307 3463 c-10 -9 -9 -23 1 -23 5 0 9 7 9 15 0 17 -1 18 -10 8z"/>
<path d="M1772 3413 c1 -22 -3 -47 -9 -55 -13 -15 -21 -104 -10 -114 4 -4 7 6
7 23 0 17 7 53 16 81 13 39 14 56 5 78 -10 28 -10 28 -9 -13z"/>
<path d="M1280 3420 c-9 -6 -10 -10 -3 -10 6 0 15 5 18 10 8 12 4 12 -15 0z"/>
<path d="M4250 3396 c0 -14 4 -27 8 -30 5 -3 6 8 4 25 -5 35 -12 38 -12 5z"/>
<path d="M1175 3330 c-3 -6 1 -7 9 -4 18 7 21 14 7 14 -6 0 -13 -4 -16 -10z"/>
<path d="M1133 3273 c4 -3 1 -13 -6 -22 -11 -14 -10 -14 5 -2 16 12 16 31 1
31 -4 0 -3 -3 0 -7z"/>
<path d="M1737 3224 c-4 -4 -7 -23 -6 -43 l1 -36 9 33 c11 36 9 58 -4 46z"/>
<path d="M1718 3100 c-2 -22 0 -40 4 -40 5 0 8 18 8 40 0 22 -2 40 -4 40 -2 0
-6 -18 -8 -40z"/>
<path d="M1707 3000 c-3 -11 -1 -23 4 -26 5 -3 9 6 9 20 0 31 -6 34 -13 6z"/>
<path d="M4401 2984 c0 -11 3 -14 6 -6 3 7 2 16 -1 19 -3 4 -6 -2 -5 -13z"/>
<path d="M937 2967 c-3 -8 1 -14 9 -14 16 0 19 13 5 21 -5 3 -11 0 -14 -7z"/>
<path d="M4495 2859 c-4 -22 -4 -43 -1 -46 3 -4 6 6 6 20 0 51 20 27 21 -25 1
-29 1 -55 1 -58 1 -3 -2 -21 -6 -40 -4 -25 -3 -31 4 -20 9 13 11 13 20 0 5 -8
7 -28 4 -44 -2 -15 1 -35 8 -43 10 -13 19 -65 21 -128 0 -11 -3 -29 -8 -39 -6
-13 -5 -17 2 -13 11 7 12 2 11 -78 0 -22 0 -92 0 -155 0 -77 -3 -108 -8 -92
-13 30 -24 28 -16 -4 4 -15 3 -23 -3 -20 -5 4 -6 -9 0 -32 5 -20 8 -57 8 -82
-1 -43 -1 -43 -10 -15 -5 17 -7 36 -4 43 2 6 0 12 -5 12 -6 0 -10 -6 -11 -12
-4 -64 -3 -78 6 -82 6 -2 12 -19 13 -37 1 -23 -1 -29 -7 -21 -11 18 -24 -47
-15 -74 5 -15 4 -16 -5 -4 -5 8 -13 11 -17 7 -4 -3 -2 -12 4 -20 7 -8 7 -18 2
-27 -12 -18 -13 -70 -2 -70 4 0 18 44 29 98 63 292 76 579 37 842 -18 127 -56
300 -65 300 -4 0 -10 -18 -14 -41z"/>
<path d="M2134 2780 c-29 -12 -64 -63 -64 -94 0 -87 98 -135 176 -87 112 68
10 231 -112 181z m92 -56 c20 -19 24 -31 19 -51 -13 -52 -69 -69 -105 -33 -26
26 -25 64 2 90 29 27 54 25 84 -6z"/>
<path d="M2570 2722 c-53 -17 -70 -97 -28 -126 36 -26 108 -19 108 10 0 17
-14 18 -39 2 -15 -9 -23 -9 -35 1 -26 22 -19 29 34 36 27 4 52 11 55 15 8 13
-37 60 -60 64 -11 2 -27 1 -35 -2z m48 -44 c3 -13 -3 -18 -22 -18 -20 0 -26 5
-26 21 0 15 5 20 22 17 13 -2 24 -11 26 -20z"/>
<path d="M2336 2710 c-1 -3 -2 -32 -2 -65 1 -53 3 -60 21 -60 16 0 21 8 23 40
7 81 49 91 54 13 3 -45 6 -53 23 -53 17 0 21 8 23 44 2 25 -2 55 -9 67 -10 20
-19 23 -71 21 -33 -1 -61 -4 -62 -7z"/>
<path d="M1713 2595 c0 -27 2 -38 4 -22 2 15 2 37 0 50 -2 12 -4 0 -4 -28z"/>
<path d="M1023 2608 c-12 -6 -27 -24 -32 -41 -14 -39 -14 -174 0 -272 5 -41 7
-86 2 -98 -6 -17 -9 -11 -15 33 -19 149 -32 208 -50 238 -17 27 -25 33 -51 30
-17 -2 -35 -11 -41 -23 -6 -11 -15 -23 -20 -26 -14 -11 9 -265 32 -359 6 -25
16 -75 22 -112 6 -37 13 -81 16 -98 5 -23 3 -30 -10 -30 -9 0 -16 3 -16 8 0 4
-15 23 -33 43 -74 81 -121 98 -163 58 -29 -27 -23 -69 17 -121 16 -20 29 -41
29 -47 0 -5 4 -11 8 -13 5 -1 24 -25 43 -53 34 -50 48 -75 124 -222 48 -92 70
-118 119 -138 52 -22 172 -21 219 1 20 10 37 21 37 26 0 4 7 8 15 8 8 0 15 3
15 8 0 4 16 25 36 46 96 104 121 230 145 706 13 264 6 310 -44 310 -36 0 -64
-50 -78 -145 -5 -33 -11 -69 -13 -80 -3 -11 -5 -31 -5 -45 -1 -20 -3 -22 -11
-10 -5 8 -10 58 -10 110 -1 131 -15 227 -36 251 -26 29 -66 25 -87 -10 -14
-24 -17 -57 -18 -183 -1 -180 -15 -160 -28 42 -6 96 -13 134 -29 166 -27 53
-47 62 -89 42z"/>
<path d="M4545 2580 c3 -5 8 -10 11 -10 2 0 4 5 4 10 0 6 -5 10 -11 10 -5 0
-7 -4 -4 -10z"/>
<path d="M1722 2515 c0 -16 2 -22 5 -12 2 9 2 23 0 30 -3 6 -5 -1 -5 -18z"/>
<path d="M4540 2528 c0 -28 13 -57 22 -52 5 3 4 11 -3 20 -6 7 -9 21 -5 29 3
8 1 15 -4 15 -6 0 -10 -6 -10 -12z"/>
<path d="M1740 2418 c0 -9 5 -20 10 -23 13 -8 13 5 0 25 -8 13 -10 13 -10 -2z"/>
<path d="M2509 2426 c-2 -2 -3 -52 -1 -110 3 -97 5 -106 23 -106 18 0 19 8 19
110 0 100 -2 110 -18 110 -10 0 -21 -2 -23 -4z"/>
<path d="M2700 2320 c0 -103 1 -110 20 -110 17 0 20 7 20 44 0 83 57 91 62 9
3 -40 6 -48 23 -48 16 0 20 7 21 40 2 69 -36 114 -71 85 -22 -19 -35 -2 -35
46 0 37 -3 44 -20 44 -19 0 -20 -7 -20 -110z"/>
<path d="M1900 2310 c0 -92 1 -100 19 -100 16 0 20 8 23 43 3 42 3 42 46 45
l42 3 0 -46 c0 -42 2 -46 23 -43 21 3 22 8 25 101 l2 97 -25 0 c-23 0 -25 -4
-25 -41 l0 -40 -42 3 c-42 3 -43 4 -46 41 -3 29 -7 37 -23 37 -18 0 -19 -8
-19 -100z"/>
<path d="M2590 2349 c-10 -22 -10 -33 -1 -42 6 -6 11 -31 11 -55 0 -36 3 -43
18 -40 12 2 18 15 20 47 2 25 10 50 19 56 13 10 13 12 -1 24 -9 8 -16 20 -16
27 0 27 -37 15 -50 -17z"/>
<path d="M4551 2315 l2 -60 7 50 c4 28 3 54 -1 60 -5 5 -8 -16 -8 -50z"/>
<path d="M2146 2329 c-54 -43 -19 -119 55 -119 21 0 42 7 50 16 11 14 9 15
-22 11 -35 -4 -69 7 -69 23 0 5 23 10 52 12 60 4 69 17 34 53 -31 30 -64 32
-100 4z m77 -13 c4 -10 -4 -15 -24 -18 -27 -4 -39 9 -22 25 11 12 41 7 46 -7z"/>
<path d="M2327 2324 c-24 -22 -28 -32 -23 -57 9 -42 32 -56 99 -55 l57 1 0 64
0 64 -32 -2 c-18 0 -42 2 -53 6 -14 4 -29 -3 -48 -21z m79 -18 c19 -20 18 -40
-4 -59 -16 -15 -20 -15 -40 -1 -26 18 -28 31 -5 56 19 22 30 23 49 4z"/>
<path d="M1781 2294 c0 -11 3 -14 6 -6 3 7 2 16 -1 19 -3 4 -6 -2 -5 -13z"/>
<path d="M4552 2230 c0 -14 2 -19 5 -12 2 6 2 18 0 25 -3 6 -5 1 -5 -13z"/>
<path d="M1811 2204 c0 -11 3 -14 6 -6 3 7 2 16 -1 19 -3 4 -6 -2 -5 -13z"/>
<path d="M4552 2160 c0 -14 2 -19 5 -12 2 6 2 18 0 25 -3 6 -5 1 -5 -13z"/>
<path d="M1841 2104 c0 -11 3 -14 6 -6 3 7 2 16 -1 19 -3 4 -6 -2 -5 -13z"/>
<path d="M3160 2099 c-44 -11 -95 -33 -125 -54 -49 -34 -237 -215 -386 -371
-96 -101 -151 -147 -268 -222 -367 -238 -1018 -392 -1481 -352 -130 11 -272
38 -354 67 -65 22 -65 3 0 -94 232 -347 538 -614 919 -803 207 -102 390 -161
640 -206 145 -26 519 -26 665 -1 458 80 844 275 1101 555 80 88 188 250 221
333 79 196 52 469 -69 714 -104 208 -188 301 -345 378 -153 76 -359 98 -518
56z m167 -371 c-3 -8 -6 -5 -6 6 -1 11 2 17 5 13 3 -3 4 -12 1 -19z m-249 -69
c-2 -21 0 -40 4 -41 5 -2 5 -19 1 -38 l-8 -35 -5 40 c-6 45 1 161 8 131 2 -10
2 -36 0 -57z m299 -21 c-3 -8 -6 -5 -6 6 -1 11 2 17 5 13 3 -3 4 -12 1 -19z
m-520 -80 c-2 -18 -4 -4 -4 32 0 36 2 50 4 33 2 -18 2 -48 0 -65z m470 60 c-3
-8 -6 -5 -6 6 -1 11 2 17 5 13 3 -3 4 -12 1 -19z m60 -40 c-3 -7 -5 -2 -5 12
0 14 2 19 5 13 2 -7 2 -19 0 -25z m-81 -33 c-4 -12 3 -15 32 -16 24 -1 28 -3
12 -5 -78 -11 -168 -26 -187 -30 -17 -3 -21 -1 -17 11 5 11 15 14 39 9 34 -6
105 17 105 35 0 6 5 11 11 11 6 0 9 -7 5 -15z m-166 -5 c0 -5 -2 -10 -4 -10
-3 0 -8 5 -11 10 -3 6 -1 10 4 10 6 0 11 -4 11 -10z m333 -30 c64 -17 67 -20
12 -13 -70 8 -96 19 -89 37 5 14 8 14 20 1 8 -8 34 -19 57 -25z m-396 -17 c-3
-10 -5 -2 -5 17 0 19 2 27 5 18 2 -10 2 -26 0 -35z m15 -33 c-12 -11 -25 -20
-29 -20 -4 0 -19 -12 -32 -25 -13 -14 -28 -25 -34 -25 -6 0 4 15 23 34 19 19
38 32 42 29 5 -2 8 0 8 6 0 5 8 12 18 14 9 3 19 5 21 6 3 0 -5 -8 -17 -19z"/>
<path d="M2257 2054 c-4 -4 -7 -54 -7 -111 0 -97 1 -103 20 -103 20 0 21 5 18
107 -3 98 -11 127 -31 107z"/>
<path d="M2527 2053 c-4 -3 -7 -52 -7 -109 l0 -102 51 -4 c27 -1 59 0 70 4 26
10 43 50 35 82 -8 32 -54 58 -79 45 -26 -15 -37 -2 -37 47 0 42 -14 57 -33 37z
m107 -135 c8 -14 6 -22 -11 -40 -22 -21 -23 -21 -43 -3 -23 21 -25 36 -8 53
17 17 48 11 62 -10z"/>
<path d="M2093 2014 c-29 -22 -33 -31 -33 -73 0 -36 5 -52 23 -69 48 -45 127
-52 127 -10 0 17 -5 19 -30 13 -24 -5 -34 -1 -55 21 -31 33 -32 53 -4 83 17
18 29 22 56 18 31 -5 34 -4 31 16 -5 35 -73 35 -115 1z"/>
<path d="M585 2011 c-3 -6 2 -11 14 -11 10 0 22 -6 25 -12 3 -7 5 -4 3 7 -2
22 -31 32 -42 16z"/>
<path d="M1872 2000 c0 -14 2 -19 5 -12 2 6 2 18 0 25 -3 6 -5 1 -5 -13z"/>
<path d="M2338 1960 c-2 -7 -1 -33 2 -58 4 -39 10 -49 33 -60 35 -17 84 -7 98
19 5 11 9 39 7 62 -2 34 -7 42 -23 42 -14 0 -19 -6 -18 -20 2 -11 1 -35 -2
-52 -5 -25 -10 -32 -25 -30 -29 5 -34 13 -34 60 -1 30 -5 43 -17 45 -10 2 -19
-2 -21 -8z"/>
<path d="M1903 1875 c0 -22 2 -30 4 -17 2 12 2 30 0 40 -3 9 -5 -1 -4 -23z"/>
<path d="M630 1840 c0 -5 5 -10 11 -10 5 0 7 5 4 10 -3 6 -8 10 -11 10 -2 0
-4 -4 -4 -10z"/>
<path d="M1902 1720 c0 -19 2 -27 5 -17 2 9 2 25 0 35 -3 9 -5 1 -5 -18z"/>
<path d="M4468 1700 c-4 -13 -3 -27 1 -30 5 -3 11 -18 13 -35 3 -16 3 -24 1
-17 -11 30 -30 3 -23 -33 4 -22 -12 -75 -21 -69 -6 3 -10 0 -8 -7 5 -39 -2
-69 -16 -69 -11 0 -15 -11 -15 -39 0 -22 -5 -43 -10 -46 -6 -4 -8 -11 -5 -16
4 -5 -1 -12 -10 -15 -9 -4 -14 -13 -11 -20 3 -8 2 -14 -2 -14 -4 0 -12 -16
-18 -35 -6 -19 -8 -32 -5 -30 6 3 57 109 86 180 9 22 20 49 26 60 16 35 49
149 49 171 0 11 -4 24 -9 30 -5 5 -11 20 -13 34 l-3 25 -7 -25z"/>
<path d="M731 1654 c0 -11 3 -14 6 -6 3 7 2 16 -1 19 -3 4 -6 -2 -5 -13z"/>
<path d="M1876 1644 c-4 -14 -5 -28 -3 -31 3 -2 8 8 11 23 4 14 5 28 3 31 -3
2 -8 -8 -11 -23z"/>
<path d="M4437 1653 c-10 -9 -8 -33 2 -33 5 0 11 9 14 20 5 20 -3 26 -16 13z"/>
<path d="M4402 1515 c0 -16 2 -22 5 -12 2 9 2 23 0 30 -3 6 -5 -1 -5 -18z"/>
<path d="M1781 1463 c-10 -26 -10 -27 4 -9 8 11 15 23 15 28 0 15 -7 8 -19
-19z"/>
<path d="M4381 1444 c0 -11 3 -14 6 -6 3 7 2 16 -1 19 -3 4 -6 -2 -5 -13z"/>
<path d="M1746 1413 c-6 -14 -5 -15 5 -6 7 7 10 15 7 18 -3 3 -9 -2 -12 -12z"/>
<path d="M1680 1337 l-23 -32 29 27 c15 15 26 30 23 33 -3 2 -16 -10 -29 -28z"/>
<path d="M1626 1294 c-5 -14 -4 -15 9 -4 17 14 19 20 6 20 -5 0 -12 -7 -15
-16z"/>
<path d="M778 1289 c-10 -5 -18 -17 -18 -26 0 -13 2 -14 17 -2 13 11 17 11 20
1 7 -20 22 -4 16 18 -6 23 -11 24 -35 9z"/>
<path d="M1590 1269 c0 -5 5 -7 10 -4 6 3 10 8 10 11 0 2 -4 4 -10 4 -5 0 -10
-5 -10 -11z"/>
<path d="M848 1212 c-34 -7 -18 -19 33 -26 28 -4 54 -5 57 -1 3 3 -6 5 -21 5
-14 0 -32 6 -39 13 -7 7 -21 11 -30 9z"/>
<path d="M1458 1193 c7 -3 16 -2 19 1 4 3 -2 6 -13 5 -11 0 -14 -3 -6 -6z"/>
<path d="M983 1163 c9 -2 23 -2 30 0 6 3 -1 5 -18 5 -16 0 -22 -2 -12 -5z"/>
<path d="M1333 1163 c9 -2 25 -2 35 0 9 3 1 5 -18 5 -19 0 -27 -2 -17 -5z"/>
<path d="M1123 1153 c37 -2 96 -2 130 0 34 2 4 3 -68 3 -71 0 -99 -1 -62 -3z"/>
</g>
</svg>
